# Blender v2.81 (sub 16) OBJ File: ''
# www.blender.org
mtllib bigPackGome.mtl
o 13.2.163.017
v -0.808312 -1.951285 -0.002605
v -0.000085 -2.112052 -0.002605
v -0.571587 -1.951285 0.568898
v 0.808143 -1.951285 -0.002605
v 0.571418 -1.951285 0.568898
v -0.571587 1.951182 0.568899
v 0.571418 1.951182 0.568899
v -0.000085 2.111949 -0.002604
v -0.000085 -1.951286 0.805623
v 0.571418 1.951182 -0.574105
v -0.571587 1.951182 -0.574105
v -0.808312 1.951182 -0.002604
v -0.000085 -1.951285 -0.810832
v 0.571418 -1.951285 -0.574107
v -0.000085 1.493358 -1.496011
v -0.000085 1.951182 -0.810830
v 1.055919 1.493358 -1.058600
v -1.056084 1.493358 -1.058600
v -1.493493 1.493358 -0.002604
v -0.000085 0.808176 -1.953837
v -1.056084 -1.493461 -1.058603
v -0.000085 -1.493461 -1.496013
v 1.493324 1.493358 -0.002604
v 0.808143 1.951182 -0.002604
v 1.379649 0.808176 -1.382335
v 1.055919 -1.493461 -1.058603
v -1.056084 1.493358 1.053399
v -1.379815 0.808176 -1.382335
v -1.951318 0.808176 -0.002604
v -1.493493 -1.493461 -0.002605
v -0.571587 -1.951285 -0.574107
v -0.000085 -0.000051 -2.114604
v -1.379815 -0.808279 -1.382335
v -0.000085 -0.808279 -1.953838
v 1.055919 1.493358 1.053399
v 1.951152 0.808176 -0.002604
v 1.493324 -0.000051 -1.496013
v 1.379649 -0.808279 -1.382335
v 1.493324 -1.493461 -0.002605
v -0.000085 1.951182 0.805623
v -1.379815 0.808176 1.377126
v -1.493493 -0.000051 -1.496013
v -2.112084 -0.000051 -0.002604
v -1.951318 -0.808279 -0.002605
v -0.000085 1.493357 1.490804
v 1.379649 0.808176 1.377126
v 2.111919 -0.000051 -0.002604
v 1.951152 -0.808279 -0.002605
v 1.055919 -1.493462 1.053399
v -0.000085 -1.493462 1.490803
v -1.056084 -1.493462 1.053399
v -1.493493 -0.000052 1.490804
v -0.000085 0.808175 1.948632
v 1.493324 -0.000052 1.490804
v 1.379649 -0.808279 1.377126
v -0.000085 -0.808279 1.948632
v -1.379815 -0.808279 1.377126
v -0.000085 -0.000052 2.109395
vt 0.047092 0.959804
vt 0.047092 0.956925
vt 0.045057 0.958961
vt 0.047092 0.954046
vt 0.045057 0.954889
vt 0.045057 0.958961
vt 0.045057 0.954889
vt 0.047092 0.956925
vt 0.044213 0.956925
vt 0.049128 0.954889
vt 0.049128 0.958961
vt 0.047092 0.959804
vt 0.049971 0.956925
vt 0.049128 0.954889
vt 0.052412 0.956925
vt 0.049971 0.956925
vt 0.050854 0.953164
vt 0.050854 0.960687
vt 0.047092 0.962245
vt 0.054043 0.956925
vt 0.050854 0.960687
vt 0.052412 0.956925
vt 0.047092 0.951606
vt 0.047092 0.954046
vt 0.052007 0.952010
vt 0.050854 0.953164
vt 0.043331 0.960687
vt 0.052007 0.961840
vt 0.047092 0.963875
vt 0.047092 0.962245
vt 0.049128 0.958961
vt 0.054615 0.956925
vt 0.052007 0.961840
vt 0.054043 0.956925
vt 0.043331 0.953164
vt 0.047092 0.949975
vt 0.052412 0.951606
vt 0.052007 0.952010
vt 0.047092 0.951606
vt 0.044213 0.956925
vt 0.042178 0.961840
vt 0.052412 0.962245
vt 0.047092 0.964448
vt 0.047092 0.963875
vt 0.041773 0.956925
vt 0.042178 0.952010
vt 0.047092 0.949402
vt 0.047092 0.949975
vt 0.043331 0.953164
vt 0.041773 0.956925
vt 0.043331 0.960687
vt 0.041773 0.962245
vt 0.040142 0.956925
vt 0.041773 0.951606
vt 0.042178 0.952010
vt 0.040142 0.956925
vt 0.042178 0.961840
vt 0.039569 0.956925
vn -0.3806 -0.9247 -0.0000
vn -0.0000 -1.0000 -0.0000
vn -0.3120 -0.8974 0.3120
vn 0.4167 -0.9079 -0.0464
vn 0.3275 -0.9079 0.2618
vn -0.1807 0.9668 0.1807
vn 0.1890 0.9530 0.2366
vn -0.0000 1.0000 -0.0000
vn 0.0464 -0.9079 0.4167
vn 0.2366 0.9530 -0.1890
vn -0.1890 0.9530 -0.2366
vn -0.4548 0.8906 0.0000
vn -0.0464 -0.9079 -0.4167
vn 0.2618 -0.9079 -0.3275
vn 0.0179 0.7091 -0.7049
vn 0.0590 0.9023 -0.4271
vn 0.5111 0.7091 -0.4857
vn -0.4857 0.7091 -0.5111
vn -0.7506 0.6608 0.0000
vn 0.0092 0.3845 -0.9231
vn -0.5111 -0.7091 -0.4857
vn -0.0179 -0.7091 -0.7049
vn 0.7049 0.7091 0.0179
vn 0.4271 0.9023 0.0590
vn 0.6592 0.3845 -0.6462
vn 0.4857 -0.7091 -0.5111
vn -0.4644 0.7541 0.4644
vn -0.6462 0.3845 -0.6592
vn -0.9466 0.3224 0.0000
vn -0.6568 -0.7541 0.0000
vn -0.3275 -0.9079 -0.2618
vn -0.0000 0.0000 -1.0000
vn -0.6592 -0.3845 -0.6462
vn -0.0092 -0.3845 -0.9231
vn 0.4857 0.7091 0.5111
vn 0.9231 0.3845 0.0092
vn 0.7071 0.0000 -0.7071
vn 0.6462 -0.3845 -0.6592
vn 0.7049 -0.7091 -0.0179
vn -0.0590 0.9023 0.4271
vn -0.6334 0.4446 0.6334
vn -0.7071 0.0000 -0.7071
vn -0.9978 -0.0662 0.0000
vn -0.8957 -0.4446 -0.0000
vn -0.0179 0.7091 0.7049
vn 0.6462 0.3845 0.6592
vn 1.0000 0.0000 0.0000
vn 0.9231 -0.3845 -0.0092
vn 0.5111 -0.7091 0.4857
vn 0.0179 -0.7091 0.7049
vn -0.5307 -0.6608 0.5307
vn -0.7056 0.0662 0.7056
vn -0.0092 0.3845 0.9231
vn 0.7071 0.0000 0.7071
vn 0.6592 -0.3845 0.6462
vn 0.0092 -0.3845 0.9231
vn -0.6694 -0.3224 0.6693
vn -0.0000 -0.0000 1.0000
usemtl zeimport_poly5_XSIPOLYCLS.maze.004
s 1
f 1/1/1 2/2/2 3/3/3
f 2/2/2 4/4/4 5/5/5
f 6/6/6 7/7/7 8/8/8
f 2/2/2 9/9/9 3/3/3
f 7/7/7 10/10/10 8/8/8
f 6/6/6 11/11/11 12/12/12
f 2/2/2 13/13/13 14/14/14
f 10/10/10 11/11/11 8/8/8
f 15/15/15 11/11/11 16/16/16
f 17/17/17 16/16/16 10/10/10
f 12/12/12 18/18/18 19/19/19
f 20/20/20 18/18/18 15/15/15
f 13/13/13 21/21/21 22/22/22
f 23/23/23 10/10/10 24/24/24
f 25/25/25 15/15/15 17/17/17
f 14/14/14 22/22/22 26/26/26
f 27/27/27 12/12/12 19/19/19
f 19/19/19 28/28/28 29/29/29
f 30/30/30 31/31/31 1/1/1
f 32/32/32 28/28/28 20/20/20
f 22/22/22 33/33/33 34/34/34
f 35/35/35 24/24/24 7/7/7
f 36/36/36 17/17/17 23/23/23
f 37/37/37 20/20/20 25/25/25
f 26/26/26 34/34/34 38/38/38
f 4/4/4 26/26/26 39/39/39
f 27/27/27 40/40/40 6/6/6
f 41/41/41 19/19/19 29/29/29
f 3/3/3 30/30/30 1/1/1
f 29/29/29 42/42/42 43/43/43
f 44/44/44 21/21/21 30/30/30
f 34/34/34 42/42/42 32/32/32
f 45/45/45 7/7/7 40/40/40
f 46/46/46 23/23/23 35/35/35
f 47/47/47 25/25/25 36/36/36
f 38/38/38 32/32/32 37/37/37
f 39/39/39 38/38/38 48/48/48
f 5/5/5 39/39/39 49/49/49
f 41/41/41 45/45/45 27/27/27
f 3/3/3 50/50/50 51/51/51
f 52/52/52 29/29/29 43/43/43
f 51/51/51 44/44/44 30/30/30
f 43/43/43 33/33/33 44/44/44
f 53/53/53 35/35/35 45/45/45
f 54/54/54 36/36/36 46/46/46
f 48/48/48 37/37/37 47/47/47
f 49/49/49 48/48/48 55/55/55
f 9/9/9 49/49/49 50/50/50
f 52/52/52 53/53/53 41/41/41
f 51/51/51 56/56/56 57/57/57
f 57/57/57 43/43/43 44/44/44
f 58/58/58 46/46/46 53/53/53
f 55/55/55 47/47/47 54/54/54
f 50/50/50 55/55/55 56/56/56
f 57/57/57 58/58/58 52/52/52
f 56/56/56 54/54/54 58/58/58
f 31/31/31 2/2/2 1/1/1
f 14/14/14 4/4/4 2/2/2
f 40/40/40 7/7/7 6/6/6
f 5/5/5 9/9/9 2/2/2
f 24/24/24 10/10/10 7/7/7
f 8/8/8 11/11/11 6/6/6
f 31/31/31 13/13/13 2/2/2
f 16/16/16 11/11/11 10/10/10
f 18/18/18 11/11/11 15/15/15
f 15/15/15 16/16/16 17/17/17
f 11/11/11 18/18/18 12/12/12
f 28/28/28 18/18/18 20/20/20
f 31/31/31 21/21/21 13/13/13
f 17/17/17 10/10/10 23/23/23
f 20/20/20 15/15/15 25/25/25
f 13/13/13 22/22/22 14/14/14
f 6/6/6 12/12/12 27/27/27
f 18/18/18 28/28/28 19/19/19
f 21/21/21 31/31/31 30/30/30
f 42/42/42 28/28/28 32/32/32
f 21/21/21 33/33/33 22/22/22
f 23/23/23 24/24/24 35/35/35
f 25/25/25 17/17/17 36/36/36
f 32/32/32 20/20/20 37/37/37
f 22/22/22 34/34/34 26/26/26
f 14/14/14 26/26/26 4/4/4
f 45/45/45 40/40/40 27/27/27
f 27/27/27 19/19/19 41/41/41
f 51/51/51 30/30/30 3/3/3
f 28/28/28 42/42/42 29/29/29
f 33/33/33 21/21/21 44/44/44
f 33/33/33 42/42/42 34/34/34
f 35/35/35 7/7/7 45/45/45
f 36/36/36 23/23/23 46/46/46
f 37/37/37 25/25/25 47/47/47
f 34/34/34 32/32/32 38/38/38
f 26/26/26 38/38/38 39/39/39
f 4/4/4 39/39/39 5/5/5
f 53/53/53 45/45/45 41/41/41
f 9/9/9 50/50/50 3/3/3
f 41/41/41 29/29/29 52/52/52
f 57/57/57 44/44/44 51/51/51
f 42/42/42 33/33/33 43/43/43
f 46/46/46 35/35/35 53/53/53
f 47/47/47 36/36/36 54/54/54
f 38/38/38 37/37/37 48/48/48
f 39/39/39 48/48/48 49/49/49
f 5/5/5 49/49/49 9/9/9
f 58/58/58 53/53/53 52/52/52
f 50/50/50 56/56/56 51/51/51
f 52/52/52 43/43/43 57/57/57
f 54/54/54 46/46/46 58/58/58
f 48/48/48 47/47/47 55/55/55
f 49/49/49 55/55/55 50/50/50
f 56/56/56 58/58/58 57/57/57
f 55/55/55 54/54/54 56/56/56
