# Blender v2.81 (sub 16) OBJ File: ''
# www.blender.org
mtllib packGome.mtl
o 13.2.163.019
v -0.593625 -0.593797 0.594672
v -0.593625 0.594203 -0.593326
v -0.593625 -0.593796 -0.593326
v -0.593625 0.594203 -0.593326
v 0.594371 0.594203 0.594672
v 0.594371 0.594203 -0.593326
v 0.594371 0.594203 0.594672
v -0.593625 -0.593797 0.594672
v 0.594371 -0.593797 0.594672
v -0.593625 -0.593796 -0.593326
v 0.594371 0.594203 -0.593326
v 0.594371 -0.593796 -0.593326
v 0.594371 -0.593797 0.594672
v -0.593625 -0.593796 -0.593326
v 0.594371 -0.593796 -0.593326
v 0.594371 0.594203 -0.593326
v 0.594371 -0.593797 0.594672
v 0.594371 -0.593796 -0.593326
v -0.593625 0.594203 0.594672
v -0.593625 0.594203 0.594672
v -0.593625 0.594203 0.594672
v -0.593625 0.594203 -0.593326
v -0.593625 -0.593797 0.594672
v 0.594371 0.594203 0.594672
vt 0.004371 0.292504
vt 0.292504 0.004371
vt 0.292504 0.292504
vt 0.878442 0.292504
vt 0.590308 0.004371
vt 0.878442 0.004371
vt 0.585473 0.585473
vt 0.297340 0.297340
vt 0.585473 0.297340
vt 0.878442 0.585473
vt 0.590308 0.297340
vt 0.878442 0.297340
vt 0.292504 0.297340
vt 0.004371 0.585473
vt 0.004371 0.297340
vt 0.585473 0.292504
vt 0.297340 0.004371
vt 0.585473 0.004371
vt 0.004371 0.004371
vt 0.590308 0.292504
vt 0.297340 0.585473
vt 0.590308 0.585473
vt 0.292504 0.585473
vt 0.297340 0.292504
vn -1.0000 -0.0000 0.0000
vn 0.0000 1.0000 0.0000
vn 0.0000 -0.0000 1.0000
vn 0.0000 0.0000 -1.0000
vn 0.0000 -1.0000 -0.0000
vn 1.0000 0.0000 0.0000
usemtl zeimport_poly5_XSIPOLYCLS.maze.005
s 1
f 1/1/1 2/2/1 3/3/1
f 4/4/2 5/5/2 6/6/2
f 7/7/3 8/8/3 9/9/3
f 10/10/4 11/11/4 12/12/4
f 13/13/5 14/14/5 15/15/5
f 16/16/6 17/17/6 18/18/6
f 19/19/1 2/2/1 1/1/1
f 20/20/2 5/5/2 4/4/2
f 21/21/3 8/8/3 7/7/3
f 22/22/4 11/11/4 10/10/4
f 23/23/5 14/14/5 13/13/5
f 24/24/6 17/17/6 16/16/6
