# Blender v2.81 (sub 16) OBJ File: ''
# www.blender.org
mtllib fantome1.mtl
o Fantome1.001
v -0.036409 -0.008808 -0.143758
v -0.036409 -0.008808 -0.152842
v -0.000006 -0.008808 -0.152842
v 0.036397 -0.008808 -0.152842
v 0.036397 -0.008808 -0.143758
v -0.036409 -0.008808 -0.134675
v 0.036397 -0.008808 -0.134675
v -0.072874 -0.008808 -0.125592
v -0.072874 -0.008808 -0.134675
v -0.054642 -0.008808 -0.134675
v 0.054629 -0.008808 -0.134675
v 0.072862 -0.008808 -0.134675
v 0.072862 -0.008808 -0.125592
v -0.072874 -0.008808 -0.116509
v 0.072862 -0.008808 -0.116509
v -0.091045 -0.008808 -0.107425
v -0.091045 -0.008808 -0.116509
v -0.081960 -0.008808 -0.116509
v 0.081947 -0.008808 -0.116509
v 0.091032 -0.008808 -0.116509
v 0.091032 -0.008808 -0.107425
v -0.091045 -0.008808 -0.098342
v 0.091032 -0.008808 -0.098342
v -0.109215 -0.008808 -0.071030
v -0.109215 -0.008808 -0.098342
v -0.100130 -0.008808 -0.098342
v 0.100118 -0.008808 -0.098342
v 0.109203 -0.008808 -0.098342
v 0.109203 -0.008808 -0.071030
v -0.109215 -0.008808 -0.043718
v 0.109203 -0.008808 -0.043718
v -0.127386 -0.008808 0.029135
v -0.127386 -0.008808 -0.043718
v -0.118300 -0.008808 -0.043718
v 0.118350 -0.008808 -0.043718
v 0.127498 -0.008808 -0.043718
v 0.127498 -0.008808 0.029135
v -0.127386 -0.008808 0.101988
v -0.109215 -0.008808 0.083697
v -0.091045 -0.008808 0.065530
v -0.081960 -0.008808 0.065530
v -0.072874 -0.008808 0.065530
v -0.018239 -0.008808 0.065530
v -0.000006 -0.008808 0.065530
v 0.018226 -0.008808 0.065530
v 0.072862 -0.008808 0.065530
v 0.081947 -0.008808 0.065530
v 0.091032 -0.008808 0.065530
v 0.127498 -0.008808 0.101988
v -0.091045 -0.008808 0.074613
v -0.072874 -0.008808 0.074613
v -0.018239 -0.008808 0.083759
v 0.018226 -0.008808 0.083759
v 0.072862 -0.008808 0.074613
v 0.091032 -0.008808 0.074613
v 0.109203 -0.008808 0.083697
v -0.091045 -0.008808 0.083697
v -0.072874 -0.008808 0.083697
v -0.063727 -0.008808 0.083697
v -0.054580 -0.008808 0.083697
v 0.054567 -0.008808 0.083697
v 0.072862 -0.008808 0.083697
v 0.091032 -0.008808 0.083697
v -0.109215 -0.008808 0.092842
v -0.100130 -0.008808 0.083697
v -0.054580 -0.008808 0.092842
v 0.054567 -0.008808 0.092842
v 0.063715 -0.008808 0.083697
v 0.100118 -0.008808 0.083697
v 0.109203 -0.008808 0.092842
v -0.018239 -0.008808 0.101988
v 0.018226 -0.008808 0.101988
v -0.109215 -0.008808 0.101988
v -0.054580 -0.008808 0.101988
v 0.054567 -0.008808 0.101988
v 0.109203 -0.008808 0.101988
v -0.118300 -0.008808 0.101988
v -0.036409 -0.008808 0.101988
v 0.036397 -0.008808 0.101988
v 0.118350 -0.008808 0.101988
v -0.036409 0.008808 -0.143758
v -0.000006 0.008808 -0.152842
v -0.036409 0.008808 -0.152842
v 0.036397 0.008808 -0.152842
v 0.036397 0.008808 -0.143758
v -0.036409 0.008808 -0.134675
v 0.036397 0.008808 -0.134675
v -0.072874 0.008808 -0.125592
v -0.054642 0.008808 -0.134675
v -0.072874 0.008808 -0.134675
v 0.054629 0.008808 -0.134675
v 0.072862 0.008808 -0.134675
v 0.072862 0.008808 -0.125592
v -0.072874 0.008808 -0.116509
v 0.072862 0.008808 -0.116509
v -0.091045 0.008808 -0.107425
v -0.081960 0.008808 -0.116509
v -0.091045 0.008808 -0.116509
v 0.081947 0.008808 -0.116509
v 0.091032 0.008808 -0.116509
v 0.091032 0.008808 -0.107425
v -0.091045 0.008808 -0.098342
v 0.091032 0.008808 -0.098342
v -0.109215 0.008808 -0.071030
v -0.100130 0.008808 -0.098342
v -0.109215 0.008808 -0.098342
v 0.100118 0.008808 -0.098342
v 0.109203 0.008808 -0.098342
v 0.109203 0.008808 -0.071030
v -0.109215 0.008808 -0.043718
v 0.109203 0.008808 -0.043718
v -0.127386 0.008808 0.029135
v -0.118300 0.008808 -0.043718
v -0.127386 0.008808 -0.043718
v 0.118350 0.008808 -0.043718
v 0.127498 0.008808 -0.043718
v 0.127498 0.008808 0.029135
v -0.127386 0.008808 0.101988
v -0.109215 0.008808 0.083697
v -0.091045 0.008808 0.065530
v -0.081960 0.008808 0.065530
v -0.072874 0.008808 0.065530
v -0.018239 0.008808 0.065530
v -0.000006 0.008808 0.065530
v 0.018226 0.008808 0.065530
v 0.072862 0.008808 0.065530
v 0.081947 0.008808 0.065530
v 0.091032 0.008808 0.065530
v 0.127498 0.008808 0.101988
v -0.091045 0.008808 0.074613
v -0.072874 0.008808 0.074613
v -0.018239 0.008808 0.083759
v 0.018226 0.008808 0.083759
v 0.072862 0.008808 0.074613
v 0.091032 0.008808 0.074613
v 0.109203 0.008808 0.083697
v -0.091045 0.008808 0.083697
v -0.072874 0.008808 0.083697
v -0.063727 0.008808 0.083697
v -0.054580 0.008808 0.083697
v 0.054567 0.008808 0.083697
v 0.072862 0.008808 0.083697
v 0.091032 0.008808 0.083697
v -0.109215 0.008808 0.092842
v -0.100130 0.008808 0.083697
v -0.054580 0.008808 0.092842
v 0.054567 0.008808 0.092842
v 0.063715 0.008808 0.083697
v 0.100118 0.008808 0.083697
v 0.109203 0.008808 0.092842
v -0.018239 0.008808 0.101988
v 0.018226 0.008808 0.101988
v -0.109215 0.008808 0.101988
v -0.054580 0.008808 0.101988
v 0.054567 0.008808 0.101988
v 0.109203 0.008808 0.101988
v -0.118300 0.008808 0.101988
v -0.036409 0.008808 0.101988
v 0.036397 0.008808 0.101988
v 0.118350 0.008808 0.101988
vt 0.356938 0.964165
vt 0.356938 0.999802
vt 0.499760 0.999802
vt 0.642582 0.999802
vt 0.642582 0.964165
vt 0.356938 0.928528
vt 0.642582 0.928528
vt 0.213871 0.892891
vt 0.213871 0.928528
vt 0.285405 0.928528
vt 0.714116 0.928528
vt 0.785649 0.928528
vt 0.785649 0.892891
vt 0.213871 0.857254
vt 0.785649 0.857254
vt 0.142582 0.821617
vt 0.142582 0.857254
vt 0.178227 0.857254
vt 0.821293 0.857254
vt 0.856938 0.857254
vt 0.856938 0.821617
vt 0.142582 0.785980
vt 0.856938 0.785980
vt 0.071293 0.678825
vt 0.071293 0.785980
vt 0.106938 0.785980
vt 0.892582 0.785980
vt 0.928227 0.785980
vt 0.928227 0.678825
vt 0.071293 0.571670
vt 0.928227 0.571670
vt 0.000004 0.285841
vt 0.000004 0.571670
vt 0.035649 0.571670
vt 0.964116 0.571670
vt 1.000004 0.571670
vt 1.000004 0.285841
vt 0.000004 0.000013
vt 0.071293 0.071775
vt 0.142582 0.143049
vt 0.178227 0.143049
vt 0.213871 0.143049
vt 0.428227 0.143049
vt 0.499760 0.143049
vt 0.571293 0.143049
vt 0.785649 0.143049
vt 0.821293 0.143049
vt 0.856938 0.143049
vt 1.000004 0.000013
vt 0.142582 0.107412
vt 0.213871 0.107412
vt 0.428227 0.071531
vt 0.571293 0.071531
vt 0.785649 0.107412
vt 0.856938 0.107412
vt 0.928227 0.071775
vt 0.142582 0.071775
vt 0.213871 0.071775
vt 0.249760 0.071775
vt 0.285649 0.071775
vt 0.713871 0.071775
vt 0.785649 0.071775
vt 0.856938 0.071775
vt 0.071293 0.035894
vt 0.106938 0.071775
vt 0.285649 0.035894
vt 0.713871 0.035894
vt 0.749760 0.071775
vt 0.892582 0.071775
vt 0.928227 0.035894
vt 0.428227 0.000013
vt 0.571293 0.000013
vt 0.071293 0.000013
vt 0.285649 0.000013
vt 0.713871 0.000013
vt 0.928227 0.000013
vt 0.035649 0.000013
vt 0.356938 0.000013
vt 0.642582 0.000013
vt 0.964116 0.000013
vt 0.356938 0.964165
vt 0.499760 0.999802
vt 0.356938 0.999802
vt 0.642582 0.999802
vt 0.642582 0.964165
vt 0.356938 0.928528
vt 0.642582 0.928528
vt 0.213871 0.892891
vt 0.285405 0.928528
vt 0.213871 0.928528
vt 0.714116 0.928528
vt 0.785649 0.928528
vt 0.785649 0.892891
vt 0.213871 0.857254
vt 0.785649 0.857254
vt 0.142582 0.821617
vt 0.178227 0.857254
vt 0.142582 0.857254
vt 0.821293 0.857254
vt 0.856938 0.857254
vt 0.856938 0.821617
vt 0.142582 0.785980
vt 0.856938 0.785980
vt 0.071293 0.678825
vt 0.106938 0.785980
vt 0.071293 0.785980
vt 0.892582 0.785980
vt 0.928227 0.785980
vt 0.928227 0.678825
vt 0.071293 0.571670
vt 0.928227 0.571670
vt 0.000004 0.285841
vt 0.035649 0.571670
vt 0.000004 0.571670
vt 0.964116 0.571670
vt 1.000004 0.571670
vt 1.000004 0.285841
vt 0.000004 0.000013
vt 0.071293 0.071775
vt 0.142582 0.143049
vt 0.178227 0.143049
vt 0.213871 0.143049
vt 0.428227 0.143049
vt 0.499760 0.143049
vt 0.571293 0.143049
vt 0.785649 0.143049
vt 0.821293 0.143049
vt 0.856938 0.143049
vt 1.000004 0.000013
vt 0.142582 0.107412
vt 0.213871 0.107412
vt 0.428227 0.071531
vt 0.571293 0.071531
vt 0.785649 0.107412
vt 0.856938 0.107412
vt 0.928227 0.071775
vt 0.142582 0.071775
vt 0.213871 0.071775
vt 0.249760 0.071775
vt 0.285649 0.071775
vt 0.713871 0.071775
vt 0.785649 0.071775
vt 0.856938 0.071775
vt 0.071293 0.035894
vt 0.106938 0.071775
vt 0.285649 0.035894
vt 0.713871 0.035894
vt 0.749760 0.071775
vt 0.892582 0.071775
vt 0.928227 0.035894
vt 0.428227 0.000013
vt 0.571293 0.000013
vt 0.071293 0.000013
vt 0.285649 0.000013
vt 0.713871 0.000013
vt 0.928227 0.000013
vt 0.035649 0.000013
vt 0.356938 0.000013
vt 0.642582 0.000013
vt 0.964116 0.000013
vt 0.543896 0.961616
vt 0.552451 0.961616
vt 0.552451 0.978093
vt 0.543896 0.978093
vt 0.633715 0.961616
vt 0.625219 0.961616
vt 0.625219 0.978093
vt 0.633715 0.978093
vt 0.429474 0.961616
vt 0.420979 0.961616
vt 0.420979 0.978093
vt 0.429474 0.978093
vt 0.416204 0.961616
vt 0.424701 0.961616
vt 0.424701 0.978093
vt 0.416204 0.978093
vt 0.599733 0.961616
vt 0.591237 0.961616
vt 0.591237 0.978093
vt 0.599733 0.978093
vt 0.561007 0.961616
vt 0.561007 0.978093
vt 0.557197 0.961616
vt 0.582742 0.961616
vt 0.582742 0.978093
vt 0.557197 0.978093
vt 0.578001 0.961616
vt 0.586499 0.961616
vt 0.586499 0.978093
vt 0.578001 0.978093
vt 0.492854 0.961616
vt 0.458807 0.961616
vt 0.458807 0.978093
vt 0.492854 0.978093
vt 0.557197 0.961616
vt 0.531653 0.961616
vt 0.531653 0.978093
vt 0.557197 0.978093
vt 0.416204 0.961616
vt 0.407707 0.961616
vt 0.407707 0.978093
vt 0.416204 0.978093
vt 0.594996 0.961616
vt 0.594996 0.978093
vt 0.412483 0.961616
vt 0.403929 0.961616
vt 0.403929 0.978093
vt 0.412483 0.978093
vt 0.526901 0.961616
vt 0.526901 0.978093
vt 0.475801 0.961616
vt 0.492854 0.961616
vt 0.492854 0.978093
vt 0.475801 0.978093
vt 0.424701 0.961616
vt 0.424701 0.978093
vt 0.412483 0.961616
vt 0.420979 0.961616
vt 0.420979 0.978093
vt 0.412483 0.978093
vt 0.531653 0.961616
vt 0.531653 0.978093
vt 0.625219 0.961616
vt 0.633715 0.961616
vt 0.633715 0.978093
vt 0.625219 0.978093
vt 0.420979 0.961616
vt 0.412483 0.961616
vt 0.412483 0.978093
vt 0.420979 0.978093
vt 0.509907 0.961616
vt 0.509907 0.978093
vt 0.531653 0.961616
vt 0.463514 0.961616
vt 0.463514 0.978093
vt 0.531653 0.978093
vt 0.395376 0.961616
vt 0.412425 0.961616
vt 0.412425 0.978093
vt 0.395376 0.978093
vt 0.616724 0.961616
vt 0.616724 0.978093
vt 0.424701 0.961616
vt 0.433257 0.961616
vt 0.433257 0.978093
vt 0.424701 0.978093
vt 0.569504 0.961616
vt 0.561007 0.961616
vt 0.561007 0.978093
vt 0.569504 0.978093
vt 0.412425 0.961616
vt 0.395376 0.961616
vt 0.395376 0.978093
vt 0.412425 0.978093
vt 0.382215 0.961616
vt 0.373718 0.961616
vt 0.373718 0.978093
vt 0.382215 0.978093
vt 0.441812 0.961616
vt 0.441812 0.978093
vt 0.578001 0.961616
vt 0.578001 0.978093
vt 0.616724 0.961616
vt 0.616724 0.978093
vt 0.561007 0.961616
vt 0.569504 0.961616
vt 0.569504 0.978093
vt 0.561007 0.978093
vt 0.390712 0.961616
vt 0.390712 0.978093
vt 0.395376 0.961616
vt 0.403929 0.961616
vt 0.403929 0.978093
vt 0.395376 0.978093
vt 0.616724 0.961616
vt 0.608228 0.961616
vt 0.608228 0.978093
vt 0.616724 0.978093
vt 0.591237 0.961616
vt 0.599733 0.961616
vt 0.599733 0.978093
vt 0.591237 0.978093
vt 0.403929 0.961616
vt 0.395376 0.961616
vt 0.395376 0.978093
vt 0.403929 0.978093
vt 0.578001 0.961616
vt 0.578001 0.978093
vt 0.582742 0.961616
vt 0.582742 0.978093
vt 0.441754 0.961616
vt 0.424701 0.961616
vt 0.424701 0.978093
vt 0.441754 0.978093
vt 0.603551 0.961616
vt 0.594996 0.961616
vt 0.594996 0.978093
vt 0.603551 0.978093
vt 0.395376 0.961616
vt 0.403929 0.961616
vt 0.403929 0.978093
vt 0.395376 0.978093
vt 0.458807 0.961616
vt 0.458807 0.978093
vt 0.412483 0.961616
vt 0.420979 0.961616
vt 0.420979 0.978093
vt 0.412483 0.978093
vt 0.395376 0.961616
vt 0.463514 0.961616
vt 0.463514 0.978093
vt 0.395376 0.978093
vt 0.612107 0.961616
vt 0.612107 0.978093
vt 0.582742 0.961616
vt 0.582742 0.978093
vt 0.395376 0.961616
vt 0.395376 0.978093
vt 0.412483 0.961616
vt 0.412483 0.978093
vt 0.582742 0.961616
vt 0.582742 0.978093
vt 0.429474 0.961616
vt 0.429474 0.978093
vt 0.531653 0.961616
vt 0.531653 0.978093
vt 0.373718 0.961616
vt 0.382215 0.961616
vt 0.382215 0.978093
vt 0.373718 0.978093
vt 0.543954 0.961616
vt 0.526901 0.961616
vt 0.526901 0.978093
vt 0.543954 0.978093
vt 0.429474 0.961616
vt 0.429474 0.978093
vt 0.395376 0.961616
vt 0.395376 0.978093
vt 0.399210 0.961616
vt 0.390712 0.961616
vt 0.390712 0.978093
vt 0.399210 0.978093
vt 0.390712 0.961616
vt 0.390712 0.978093
vt 0.412483 0.961616
vt 0.412483 0.978093
vt 0.441812 0.961616
vt 0.458807 0.961616
vt 0.458807 0.978093
vt 0.441812 0.978093
vt 0.561007 0.961616
vt 0.561007 0.978093
vt 0.390712 0.961616
vt 0.399210 0.961616
vt 0.399210 0.978093
vt 0.390712 0.978093
vt 0.407707 0.961616
vt 0.407707 0.978093
vt 0.475801 0.961616
vt 0.475801 0.978093
vt 0.407707 0.961616
vt 0.407707 0.978093
vt 0.429474 0.961616
vt 0.429474 0.978093
vt 0.509907 0.961616
vt 0.526901 0.961616
vt 0.526901 0.978093
vt 0.509907 0.978093
vt 0.608228 0.961616
vt 0.616724 0.961616
vt 0.616724 0.978093
vt 0.608228 0.978093
vt 0.412483 0.961616
vt 0.412483 0.978093
vt 0.429474 0.961616
vt 0.429474 0.978093
vt 0.543896 0.961616
vt 0.543896 0.978093
vt 0.599733 0.961616
vt 0.599733 0.978093
vt 0.586499 0.961616
vt 0.578001 0.961616
vt 0.578001 0.978093
vt 0.586499 0.978093
vt 0.594996 0.961616
vt 0.603551 0.961616
vt 0.603551 0.978093
vt 0.594996 0.978093
vt 0.407707 0.961616
vt 0.407707 0.978093
vt 0.612107 0.961616
vt 0.612107 0.978093
vt 0.412483 0.961616
vt 0.412483 0.978093
vt 0.429474 0.961616
vt 0.429474 0.978093
vt 0.594996 0.961616
vt 0.594996 0.978093
vt 0.599733 0.961616
vt 0.599733 0.978093
vn 0.0000 -1.0000 -0.0000
vn 0.0010 0.0624 0.9981
vn 0.0006 0.0316 0.9995
vn 0.0015 0.0929 0.9957
vn 0.0000 -0.0000 -1.0000
vn 0.0000 0.0000 1.0000
vn 0.0000 1.0000 0.0000
vn -0.0010 -0.0624 -0.9981
vn -0.0006 -0.0316 -0.9995
vn -0.0015 -0.0929 -0.9957
vn 0.9801 0.0481 -0.1926
vn -1.0000 0.0000 0.0000
vn 1.0000 0.0000 0.0000
usemtl SVGMat.005
s 1
f 1/1/1 2/2/1 3/3/1
f 1/1/1 3/3/1 4/4/1
f 1/1/1 4/4/1 5/5/1
f 6/6/1 1/1/1 5/5/1
f 6/6/1 5/5/1 7/7/1
f 8/8/1 9/9/1 10/10/1
f 8/8/1 10/10/1 6/6/1
f 8/8/1 6/6/1 7/7/1
f 8/8/1 7/7/1 11/11/1
f 8/8/1 11/11/1 12/12/1
f 8/8/1 12/12/1 13/13/1
f 14/14/1 8/8/1 13/13/1
f 14/14/1 13/13/1 15/15/1
f 16/16/1 17/17/1 18/18/1
f 16/16/1 18/18/1 14/14/1
f 16/16/1 14/14/1 15/15/1
f 16/16/1 15/15/1 19/19/1
f 16/16/1 19/19/1 20/20/1
f 16/16/1 20/20/1 21/21/1
f 22/22/1 16/16/1 21/21/1
f 22/22/1 21/21/1 23/23/1
f 24/24/1 25/25/1 26/26/1
f 24/24/1 26/26/1 22/22/1
f 24/24/1 22/22/1 23/23/1
f 24/24/1 23/23/1 27/27/1
f 24/24/1 27/27/1 28/28/1
f 24/24/1 28/28/1 29/29/1
f 30/30/1 24/24/1 29/29/1
f 30/30/1 29/29/1 31/31/1
f 32/32/1 33/33/1 34/34/1
f 32/32/1 34/34/1 30/30/1
f 32/32/1 30/30/1 31/31/1
f 32/32/1 31/31/1 35/35/1
f 32/32/1 35/35/1 36/36/1
f 32/32/1 36/36/1 37/37/1
f 38/38/1 32/32/1 39/39/1
f 39/39/1 32/32/1 40/40/1
f 40/40/1 32/32/1 37/37/1
f 40/40/1 37/37/1 41/41/1
f 41/41/1 37/37/1 42/42/1
f 42/42/1 37/37/1 43/43/1
f 43/43/1 37/37/1 44/44/1
f 44/44/1 37/37/1 45/45/1
f 45/45/1 37/37/1 46/46/1
f 46/46/1 37/37/1 47/47/1
f 47/47/1 37/37/1 48/48/1
f 48/48/1 37/37/1 49/49/1
f 39/39/1 40/40/1 50/50/1
f 51/51/1 42/42/1 43/43/1
f 51/51/1 43/43/1 52/52/1
f 53/53/1 45/45/1 46/46/1
f 53/53/1 46/46/1 54/54/1
f 55/55/1 48/48/1 56/56/1
f 56/56/2 48/48/3 49/49/4
f 39/39/1 50/50/1 57/57/1
f 58/58/1 51/51/1 59/59/1
f 59/59/1 51/51/1 60/60/1
f 60/60/1 51/51/1 52/52/1
f 53/53/1 54/54/1 61/61/1
f 61/61/1 54/54/1 62/62/1
f 63/63/1 55/55/1 56/56/1
f 38/38/1 39/39/1 64/64/1
f 65/65/5 39/39/5 57/57/5
f 66/66/1 60/60/1 52/52/1
f 53/53/1 61/61/1 67/67/1
f 68/68/6 61/61/6 62/62/6
f 69/69/6 63/63/6 56/56/6
f 70/70/1 56/56/1 49/49/1
f 66/66/1 52/52/1 71/71/1
f 72/72/1 53/53/1 67/67/1
f 38/38/1 64/64/1 73/73/1
f 74/74/1 66/66/1 71/71/1
f 72/72/1 67/67/1 75/75/1
f 76/76/1 70/70/1 49/49/1
f 77/77/6 38/38/6 73/73/6
f 78/78/5 74/74/6 71/71/6
f 79/79/5 72/72/5 75/75/5
f 80/80/6 76/76/6 49/49/6
f 81/81/7 82/82/7 83/83/7
f 81/81/7 84/84/7 82/82/7
f 81/81/7 85/85/7 84/84/7
f 86/86/7 85/85/7 81/81/7
f 86/86/7 87/87/7 85/85/7
f 88/88/7 89/89/7 90/90/7
f 88/88/7 86/86/7 89/89/7
f 88/88/7 87/87/7 86/86/7
f 88/88/7 91/91/7 87/87/7
f 88/88/7 92/92/7 91/91/7
f 88/88/7 93/93/7 92/92/7
f 94/94/7 93/93/7 88/88/7
f 94/94/7 95/95/7 93/93/7
f 96/96/7 97/97/7 98/98/7
f 96/96/7 94/94/7 97/97/7
f 96/96/7 95/95/7 94/94/7
f 96/96/7 99/99/7 95/95/7
f 96/96/7 100/100/7 99/99/7
f 96/96/7 101/101/7 100/100/7
f 102/102/7 101/101/7 96/96/7
f 102/102/7 103/103/7 101/101/7
f 104/104/7 105/105/7 106/106/7
f 104/104/7 102/102/7 105/105/7
f 104/104/7 103/103/7 102/102/7
f 104/104/7 107/107/7 103/103/7
f 104/104/7 108/108/7 107/107/7
f 104/104/7 109/109/7 108/108/7
f 110/110/7 109/109/7 104/104/7
f 110/110/7 111/111/7 109/109/7
f 112/112/7 113/113/7 114/114/7
f 112/112/7 110/110/7 113/113/7
f 112/112/7 111/111/7 110/110/7
f 112/112/7 115/115/7 111/111/7
f 112/112/7 116/116/7 115/115/7
f 112/112/7 117/117/7 116/116/7
f 118/118/7 119/119/7 112/112/7
f 119/119/7 120/120/7 112/112/7
f 120/120/7 117/117/7 112/112/7
f 120/120/7 121/121/7 117/117/7
f 121/121/7 122/122/7 117/117/7
f 122/122/7 123/123/7 117/117/7
f 123/123/7 124/124/7 117/117/7
f 124/124/7 125/125/7 117/117/7
f 125/125/7 126/126/7 117/117/7
f 126/126/7 127/127/7 117/117/7
f 127/127/7 128/128/7 117/117/7
f 128/128/7 129/129/7 117/117/7
f 119/119/7 130/130/7 120/120/7
f 131/131/7 123/123/7 122/122/7
f 131/131/7 132/132/7 123/123/7
f 133/133/7 126/126/7 125/125/7
f 133/133/7 134/134/7 126/126/7
f 135/135/7 136/136/7 128/128/7
f 136/136/8 129/129/9 128/128/10
f 119/119/7 137/137/7 130/130/7
f 138/138/7 139/139/7 131/131/7
f 139/139/7 140/140/7 131/131/7
f 140/140/7 132/132/7 131/131/7
f 133/133/7 141/141/7 134/134/7
f 141/141/7 142/142/7 134/134/7
f 143/143/7 136/136/7 135/135/7
f 118/118/7 144/144/7 119/119/7
f 145/145/6 137/137/6 119/119/6
f 146/146/7 132/132/7 140/140/7
f 133/133/7 147/147/7 141/141/7
f 148/148/6 142/142/6 141/141/6
f 149/149/11 136/136/6 143/143/6
f 150/150/7 129/129/7 136/136/7
f 146/146/7 151/151/7 132/132/7
f 152/152/7 147/147/7 133/133/7
f 118/118/7 153/153/7 144/144/7
f 154/154/7 151/151/7 146/146/7
f 152/152/7 155/155/7 147/147/7
f 156/156/7 129/129/7 150/150/7
f 157/157/6 153/153/6 118/118/6
f 158/158/6 151/151/6 154/154/6
f 159/159/6 155/155/6 152/152/6
f 160/160/6 129/129/6 156/156/6
f 61/161/6 68/162/6 148/163/6 141/164/6
f 2/165/12 1/166/12 81/167/12 83/168/12
f 48/169/12 55/170/12 135/171/12 128/172/12
f 41/173/6 42/174/6 122/175/6 121/176/6
f 17/177/12 16/178/12 96/179/12 98/180/12
f 68/162/6 62/181/6 142/182/6 148/163/6
f 29/183/13 28/184/13 108/185/13 109/186/13
f 63/187/6 69/188/6 149/189/11 143/190/6
f 3/191/5 2/192/5 83/193/5 82/194/5
f 24/195/12 30/196/12 110/197/12 104/198/12
f 18/199/5 17/200/5 98/201/5 97/202/5
f 69/188/6 56/203/6 136/204/6 149/189/11
f 56/205/12 70/206/12 150/207/12 136/208/12
f 4/209/5 3/191/5 82/194/5 84/210/5
f 43/211/6 44/212/6 124/213/6 123/214/6
f 14/215/5 18/199/5 97/202/5 94/216/5
f 57/217/13 50/218/13 130/219/13 137/220/13
f 31/221/13 29/183/13 109/186/13 111/222/13
f 5/223/13 4/224/13 84/225/13 85/226/13
f 51/227/12 58/228/12 138/229/12 131/230/12
f 44/212/6 45/231/6 125/232/6 124/213/6
f 33/233/12 32/234/12 112/235/12 114/236/12
f 71/237/13 52/238/13 132/239/13 151/240/13
f 1/166/12 6/241/12 86/242/12 81/167/12
f 58/243/6 59/244/6 139/245/6 138/246/6
f 19/247/5 15/248/5 95/249/5 99/250/5
f 53/251/12 72/252/12 152/253/12 133/254/12
f 34/255/5 33/256/5 114/257/5 113/258/5
f 59/244/6 60/259/6 140/260/6 139/245/6
f 20/261/5 19/247/5 99/250/5 100/262/5
f 7/263/13 5/223/13 85/226/13 87/264/13
f 46/265/6 47/266/6 127/267/6 126/268/6
f 30/269/5 34/255/5 113/258/5 110/270/5
f 73/271/13 64/272/13 144/273/13 153/274/13
f 9/275/12 8/276/12 88/277/12 90/278/12
f 21/279/13 20/280/13 100/281/13 101/282/13
f 66/283/12 74/284/12 154/285/12 146/286/12
f 47/266/6 48/287/6 128/288/6 127/267/6
f 16/178/12 22/289/12 102/290/12 96/179/12
f 10/291/5 9/292/5 90/293/5 89/294/5
f 35/295/5 31/296/5 111/297/5 115/298/5
f 75/299/13 67/300/13 147/301/13 155/302/13
f 6/303/5 10/291/5 89/294/5 86/304/5
f 62/305/13 54/306/13 134/307/13 142/308/13
f 49/309/13 37/310/13 117/311/13 129/312/13
f 36/313/5 35/295/5 115/298/5 116/314/5
f 23/315/13 21/279/13 101/282/13 103/316/13
f 70/206/12 76/317/12 156/318/12 150/207/12
f 55/170/12 63/319/12 143/320/12 135/171/12
f 25/321/12 24/195/12 104/198/12 106/322/12
f 50/218/13 40/323/13 120/324/13 130/219/13
f 37/310/13 36/325/13 116/326/13 117/311/13
f 38/327/6 77/328/6 157/329/6 118/330/6
f 11/331/5 7/332/5 87/333/5 91/334/5
f 42/335/12 51/227/12 131/230/12 122/336/12
f 32/234/12 38/337/12 118/338/12 112/235/12
f 26/339/5 25/340/5 106/341/5 105/342/5
f 77/328/6 73/343/6 153/344/6 157/329/6
f 64/272/13 39/345/13 119/346/13 144/273/13
f 74/347/6 78/348/5 158/349/6 154/350/6
f 12/351/5 11/331/5 91/334/5 92/352/5
f 39/353/6 65/354/6 145/355/6 119/356/6
f 22/357/5 26/339/5 105/342/5 102/358/5
f 78/348/5 71/359/6 151/360/6 158/349/6
f 65/354/6 57/361/6 137/362/6 145/355/6
f 52/238/13 43/363/13 123/364/13 132/239/13
f 72/365/6 79/366/6 159/367/6 152/368/6
f 13/369/13 12/370/13 92/371/13 93/372/13
f 60/373/12 66/283/12 146/286/12 140/374/12
f 45/375/12 53/251/12 133/254/12 125/376/12
f 79/366/6 75/377/6 155/378/6 159/367/6
f 8/276/12 14/379/12 94/380/12 88/277/12
f 27/381/5 23/382/5 103/383/5 107/384/5
f 76/385/6 80/386/6 160/387/6 156/388/6
f 40/389/6 41/173/6 121/176/6 120/390/6
f 80/386/6 49/391/6 129/392/6 160/387/6
f 67/300/13 61/393/13 141/394/13 147/301/13
f 54/306/13 46/395/13 126/396/13 134/307/13
f 28/397/5 27/381/5 107/384/5 108/398/5
f 15/399/13 13/369/13 93/372/13 95/400/13
